<?xml version="1.0" encoding="UTF-8" standalone="no"?>
<!-- Created with Inkscape (http://www.inkscape.org/) -->

<svg
   width="92.227341mm"
   height="34.734249mm"
   viewBox="0 0 92.227341 34.734249"
   version="1.1"
   id="svg1"
   xml:space="preserve"
   inkscape:version="1.3.2 (091e20e, 2023-11-25, custom)"
   sodipodi:docname="logo.svg"
   xmlns:inkscape="http://www.inkscape.org/namespaces/inkscape"
   xmlns:sodipodi="http://sodipodi.sourceforge.net/DTD/sodipodi-0.dtd"
   xmlns="http://www.w3.org/2000/svg"
   xmlns:svg="http://www.w3.org/2000/svg"><sodipodi:namedview
     id="namedview1"
     pagecolor="#ffffff"
     bordercolor="#000000"
     borderopacity="0.25"
     inkscape:showpageshadow="2"
     inkscape:pageopacity="0.0"
     inkscape:pagecheckerboard="0"
     inkscape:deskcolor="#d1d1d1"
     inkscape:document-units="mm"
     inkscape:zoom="1"
     inkscape:cx="363"
     inkscape:cy="575.5"
     inkscape:window-width="1920"
     inkscape:window-height="1017"
     inkscape:window-x="-8"
     inkscape:window-y="1478"
     inkscape:window-maximized="1"
     inkscape:current-layer="layer1" /><defs
     id="defs1" /><g
     inkscape:label="Calque 1"
     inkscape:groupmode="layer"
     id="layer1"
     transform="translate(-13.511274,-215.36498)"><path
       style="fill:#d4ff2f;fill-opacity:1"
       d="m 14.652685,242.41552 c -0.0633,-0.10914 -0.33743,-1.03188 -0.60922,-2.05052 -0.75689,-2.8368 -0.69608,-9.26607 0.11637,-12.30313 1.40782,-5.26262 4.05281,-8.90288 7.955252,-10.94867 2.50261,-1.31195 4.15968,-1.74428 6.70057,-1.74819 2.55817,-0.004 4.45269,0.66467 6.17222,2.17826 1.58471,1.39491 2.22487,2.77499 2.23241,4.81267 0.006,1.67021 -0.51729,3.06941 -1.68929,4.51531 l -0.6434,0.79375 0.14034,-1.5875 c 0.25338,-2.86621 -0.75956,-4.82633 -2.89428,-5.60067 -1.39107,-0.50459 -4.1776,-0.41342 -6.19062,0.20256 -5.43308,1.66249 -8.878072,5.18327 -10.459702,10.68977 -0.5281,1.83859 -0.6084,2.71625 -0.61125,6.68038 -0.002,2.51004 -0.026,4.56387 -0.0538,4.56406 -0.0278,2e-4 -0.10231,-0.0889 -0.16559,-0.19808 z"
       id="path1-7-1-6"
       sodipodi:nodetypes="sssscscscsssscsss" /><path
       style="fill:#4d4d4d"
       d="m 28.644867,246.88438 c -5.07558,-1.48191 -8.76835,-6.66158 -9.17325,-12.86689 -0.52549,-8.05333 6.02133,-14.12128 12.08366,-11.19981 l 1.45521,0.70127 -1.45205,0.22908 c -4.22492,0.66652 -7.12801,3.94694 -7.36431,8.3215 -0.2313,4.28196 1.92388,7.56977 6.03824,9.21158 1.95122,0.77863 5.40407,0.82756 10.18875,0.14439 6.81765,-0.97345 10.0178,-0.49095 14.01452,2.11302 1.85031,1.20552 2.26706,1.7877 0.866,1.20977 -2.06275,-0.85089 -4.99879,-1.28009 -7.71474,-1.12779 -2.35605,0.13212 -3.24596,0.34332 -7.56495,1.79534 -4.49291,1.51049 -5.11202,1.6526 -7.54062,1.73088 -1.65478,0.0533 -3.09181,-0.0449 -3.83646,-0.26234 z"
       id="path1-8-9-4-6"
       sodipodi:nodetypes="csscsssssssssc" /><path
       style="fill:#1a1a1a"
       d="m 27.527377,249.83882 c -5.86484,-0.7538 -10.252332,-4.50951 -11.346762,-9.71289 -0.42054,-1.99942 -0.3674,-3.38918 0.21695,-5.67397 0.46996,-1.83752 1.7763,-4.8792 1.99961,-4.65588 0.0521,0.052 -0.0732,0.80803 -0.27824,1.67995 -0.47521,2.02041 -0.48136,5.94784 -0.0121,7.71037 1.184362,4.44812 5.025412,8.05333 10.688422,10.03214 2.70319,0.94456 2.4019,1.09196 -1.26791,0.62028 z"
       id="path1-8-5-2-7-19-7"
       sodipodi:nodetypes="csscccscc" /><text
       xml:space="preserve"
       style="font-style:normal;font-variant:normal;font-weight:normal;font-stretch:normal;font-size:18.4034px;font-family:'Bebas Neue';-inkscape-font-specification:'Bebas Neue, Normal';font-variant-ligatures:normal;font-variant-caps:normal;font-variant-numeric:normal;font-variant-east-asian:normal;fill:#b3b3b3;stroke:none;stroke-width:0.728179;stroke-dasharray:2.91272, 1.45635;stroke-dashoffset:0.509726"
       x="26.386337"
       y="274.41046"
       id="text2-6-1-4"
       transform="scale(1.1435567,0.87446473)"><tspan
         sodipodi:role="line"
         id="tspan2-0-2-0"
         style="font-style:normal;font-variant:normal;font-weight:normal;font-stretch:normal;font-size:18.4034px;font-family:'Bebas Neue';-inkscape-font-specification:'Bebas Neue, Normal';font-variant-ligatures:normal;font-variant-caps:normal;font-variant-numeric:normal;font-variant-east-asian:normal;fill:#b3b3b3;stroke-width:0.728179"
         x="26.386337"
         y="274.41046">ODE</tspan></text><text
       xml:space="preserve"
       style="font-style:normal;font-variant:normal;font-weight:normal;font-stretch:normal;font-size:18.4034px;font-family:'Bebas Neue';-inkscape-font-specification:'Bebas Neue, Normal';font-variant-ligatures:normal;font-variant-caps:normal;font-variant-numeric:normal;font-variant-east-asian:normal;fill:#d4ff2f;fill-opacity:1;stroke:none;stroke-width:0.728179;stroke-dasharray:2.91272, 1.45635;stroke-dashoffset:0.509726"
       x="49.014275"
       y="274.41046"
       id="text2-6-1-4-1"
       transform="scale(1.1435567,0.87446473)"><tspan
         sodipodi:role="line"
         id="tspan2-0-2-0-8"
         style="font-style:normal;font-variant:normal;font-weight:normal;font-stretch:normal;font-size:18.4034px;font-family:'Bebas Neue';-inkscape-font-specification:'Bebas Neue, Normal';font-variant-ligatures:normal;font-variant-caps:normal;font-variant-numeric:normal;font-variant-east-asian:normal;fill:#d4ff2f;fill-opacity:1;stroke-width:0.728179"
         x="49.014275"
         y="274.41046">HOOKTO</tspan></text></g></svg>
